<?xml version="1.0" encoding="iso-8859-1"?>
<!-- Generator: Adobe Illustrator 19.0.0, SVG Export Plug-In . SVG Version: 6.00 Build 0)  -->
<svg version="1.1" id="Layer_1" xmlns="http://www.w3.org/2000/svg" xmlns:xlink="http://www.w3.org/1999/xlink" x="0px" y="0px"
	 viewBox="0 0 512 512" style="enable-background:new 0 0 512 512;" xml:space="preserve">
<path style="fill:#EFF2FA;" d="M485.517,472.276H26.483c-9.751,0-17.655-7.904-17.655-17.655V119.172h494.345v335.448
	C503.172,464.372,495.268,472.276,485.517,472.276z"/>
<rect x="8.828" y="119.172" style="fill:#D7DEED;" width="494.345" height="35.31"/>
<path style="fill:#FF6464;" d="M503.172,136.828H8.828C3.953,136.828,0,132.875,0,128V75.034c0-4.875,3.953-8.828,8.828-8.828
	h494.345c4.875,0,8.828,3.953,8.828,8.828V128C512,132.875,508.047,136.828,503.172,136.828z"/>
<path style="fill:#D2555A;" d="M503.172,136.828H8.828C3.953,136.828,0,132.875,0,128l0,0c0-4.875,3.953-8.828,8.828-8.828h494.345
	c4.875,0,8.828,3.953,8.828,8.828l0,0C512,132.875,508.047,136.828,503.172,136.828z"/>
<g>
	<path style="fill:#C7CFE2;" d="M432.552,92.69c-4.875,0-8.828-3.948-8.828-8.828v-35.31c0-4.879,3.953-8.828,8.828-8.828
		s8.828,3.948,8.828,8.828v35.31C441.379,88.742,437.427,92.69,432.552,92.69z"/>
	<path style="fill:#C7CFE2;" d="M476.69,92.69c-4.875,0-8.828-3.948-8.828-8.828v-35.31c0-4.879,3.953-8.828,8.828-8.828
		c4.875,0,8.828,3.948,8.828,8.828v35.31C485.517,88.742,481.565,92.69,476.69,92.69z"/>
	<path style="fill:#C7CFE2;" d="M35.31,92.69c-4.875,0-8.828-3.948-8.828-8.828v-35.31c0-4.879,3.953-8.828,8.828-8.828
		s8.828,3.948,8.828,8.828v35.31C44.138,88.742,40.185,92.69,35.31,92.69z"/>
	<path style="fill:#C7CFE2;" d="M388.414,92.69c-4.875,0-8.828-3.948-8.828-8.828v-35.31c0-4.879,3.953-8.828,8.828-8.828
		s8.828,3.948,8.828,8.828v35.31C397.241,88.742,393.289,92.69,388.414,92.69z"/>
	<path style="fill:#C7CFE2;" d="M344.276,92.69c-4.875,0-8.828-3.948-8.828-8.828v-35.31c0-4.879,3.953-8.828,8.828-8.828
		c4.875,0,8.828,3.948,8.828,8.828v35.31C353.103,88.742,349.151,92.69,344.276,92.69z"/>
	<path style="fill:#C7CFE2;" d="M300.138,92.69c-4.875,0-8.828-3.948-8.828-8.828v-35.31c0-4.879,3.953-8.828,8.828-8.828
		s8.828,3.948,8.828,8.828v35.31C308.966,88.742,305.013,92.69,300.138,92.69z"/>
	<path style="fill:#C7CFE2;" d="M256,92.69c-4.875,0-8.828-3.948-8.828-8.828v-35.31c0-4.879,3.953-8.828,8.828-8.828
		s8.828,3.948,8.828,8.828v35.31C264.828,88.742,260.875,92.69,256,92.69z"/>
	<path style="fill:#C7CFE2;" d="M211.862,92.69c-4.875,0-8.828-3.948-8.828-8.828v-35.31c0-4.879,3.953-8.828,8.828-8.828
		c4.875,0,8.828,3.948,8.828,8.828v35.31C220.69,88.742,216.737,92.69,211.862,92.69z"/>
	<path style="fill:#C7CFE2;" d="M167.724,92.69c-4.875,0-8.828-3.948-8.828-8.828v-35.31c0-4.879,3.953-8.828,8.828-8.828
		s8.828,3.948,8.828,8.828v35.31C176.552,88.742,172.599,92.69,167.724,92.69z"/>
	<path style="fill:#C7CFE2;" d="M123.586,92.69c-4.875,0-8.828-3.948-8.828-8.828v-35.31c0-4.879,3.953-8.828,8.828-8.828
		c4.875,0,8.828,3.948,8.828,8.828v35.31C132.414,88.742,128.461,92.69,123.586,92.69z"/>
	<path style="fill:#C7CFE2;" d="M79.448,92.69c-4.875,0-8.828-3.948-8.828-8.828v-35.31c0-4.879,3.953-8.828,8.828-8.828
		c4.875,0,8.828,3.948,8.828,8.828v35.31C88.276,88.742,84.323,92.69,79.448,92.69z"/>
</g>
<g>
	<path style="fill:#D7DEED;" d="M97.103,260.414h-35.31c-4.875,0-8.828-3.953-8.828-8.828v-17.655c0-4.875,3.953-8.828,8.828-8.828
		h35.31c4.875,0,8.828,3.953,8.828,8.828v17.655C105.931,256.461,101.978,260.414,97.103,260.414z"/>
	<path style="fill:#D7DEED;" d="M97.103,366.345h-35.31c-4.875,0-8.828-3.953-8.828-8.828v-17.655c0-4.875,3.953-8.828,8.828-8.828
		h35.31c4.875,0,8.828,3.953,8.828,8.828v17.655C105.931,362.392,101.978,366.345,97.103,366.345z"/>
	<path style="fill:#D7DEED;" d="M97.103,313.379h-35.31c-4.875,0-8.828-3.953-8.828-8.828v-17.655c0-4.875,3.953-8.828,8.828-8.828
		h35.31c4.875,0,8.828,3.953,8.828,8.828v17.655C105.931,309.427,101.978,313.379,97.103,313.379z"/>
	<path style="fill:#D7DEED;" d="M97.103,419.31h-35.31c-4.875,0-8.828-3.953-8.828-8.828v-17.655c0-4.875,3.953-8.828,8.828-8.828
		h35.31c4.875,0,8.828,3.953,8.828,8.828v17.655C105.931,415.358,101.978,419.31,97.103,419.31z"/>
	<path style="fill:#D7DEED;" d="M167.724,260.414h-35.31c-4.875,0-8.828-3.953-8.828-8.828v-17.655c0-4.875,3.953-8.828,8.828-8.828
		h35.31c4.875,0,8.828,3.953,8.828,8.828v17.655C176.552,256.461,172.599,260.414,167.724,260.414z"/>
	<path style="fill:#D7DEED;" d="M167.724,366.345h-35.31c-4.875,0-8.828-3.953-8.828-8.828v-17.655c0-4.875,3.953-8.828,8.828-8.828
		h35.31c4.875,0,8.828,3.953,8.828,8.828v17.655C176.552,362.392,172.599,366.345,167.724,366.345z"/>
	<path style="fill:#D7DEED;" d="M167.724,419.31h-35.31c-4.875,0-8.828-3.953-8.828-8.828v-17.655c0-4.875,3.953-8.828,8.828-8.828
		h35.31c4.875,0,8.828,3.953,8.828,8.828v17.655C176.552,415.358,172.599,419.31,167.724,419.31z"/>
	<path style="fill:#D7DEED;" d="M167.724,313.379h-35.31c-4.875,0-8.828-3.953-8.828-8.828v-17.655c0-4.875,3.953-8.828,8.828-8.828
		h35.31c4.875,0,8.828,3.953,8.828,8.828v17.655C176.552,309.427,172.599,313.379,167.724,313.379z"/>
	<path style="fill:#D7DEED;" d="M238.345,260.414h-35.31c-4.875,0-8.828-3.953-8.828-8.828v-17.655c0-4.875,3.953-8.828,8.828-8.828
		h35.31c4.875,0,8.828,3.953,8.828,8.828v17.655C247.172,256.461,243.22,260.414,238.345,260.414z"/>
	<path style="fill:#D7DEED;" d="M238.345,313.379h-35.31c-4.875,0-8.828-3.953-8.828-8.828v-17.655c0-4.875,3.953-8.828,8.828-8.828
		h35.31c4.875,0,8.828,3.953,8.828,8.828v17.655C247.172,309.427,243.22,313.379,238.345,313.379z"/>
	<path style="fill:#D7DEED;" d="M308.966,260.414h-35.31c-4.875,0-8.828-3.953-8.828-8.828v-17.655c0-4.875,3.953-8.828,8.828-8.828
		h35.31c4.875,0,8.828,3.953,8.828,8.828v17.655C317.793,256.461,313.841,260.414,308.966,260.414z"/>
	<path style="fill:#D7DEED;" d="M308.966,313.379h-35.31c-4.875,0-8.828-3.953-8.828-8.828v-17.655c0-4.875,3.953-8.828,8.828-8.828
		h35.31c4.875,0,8.828,3.953,8.828,8.828v17.655C317.793,309.427,313.841,313.379,308.966,313.379z"/>
	<path style="fill:#D7DEED;" d="M238.345,366.345h-35.31c-4.875,0-8.828-3.953-8.828-8.828v-17.655c0-4.875,3.953-8.828,8.828-8.828
		h35.31c4.875,0,8.828,3.953,8.828,8.828v17.655C247.172,362.392,243.22,366.345,238.345,366.345z"/>
	<path style="fill:#D7DEED;" d="M308.966,366.345h-35.31c-4.875,0-8.828-3.953-8.828-8.828v-17.655c0-4.875,3.953-8.828,8.828-8.828
		h35.31c4.875,0,8.828,3.953,8.828,8.828v17.655C317.793,362.392,313.841,366.345,308.966,366.345z"/>
	<path style="fill:#D7DEED;" d="M238.345,419.31h-35.31c-4.875,0-8.828-3.953-8.828-8.828v-17.655c0-4.875,3.953-8.828,8.828-8.828
		h35.31c4.875,0,8.828,3.953,8.828,8.828v17.655C247.172,415.358,243.22,419.31,238.345,419.31z"/>
	<path style="fill:#D7DEED;" d="M308.966,419.31h-35.31c-4.875,0-8.828-3.953-8.828-8.828v-17.655c0-4.875,3.953-8.828,8.828-8.828
		h35.31c4.875,0,8.828,3.953,8.828,8.828v17.655C317.793,415.358,313.841,419.31,308.966,419.31z"/>
	<path style="fill:#D7DEED;" d="M379.586,260.414h-35.31c-4.875,0-8.828-3.953-8.828-8.828v-17.655c0-4.875,3.953-8.828,8.828-8.828
		h35.31c4.875,0,8.828,3.953,8.828,8.828v17.655C388.414,256.461,384.461,260.414,379.586,260.414z"/>
	<path style="fill:#D7DEED;" d="M379.586,366.345h-35.31c-4.875,0-8.828-3.953-8.828-8.828v-17.655c0-4.875,3.953-8.828,8.828-8.828
		h35.31c4.875,0,8.828,3.953,8.828,8.828v17.655C388.414,362.392,384.461,366.345,379.586,366.345z"/>
	<path style="fill:#D7DEED;" d="M379.586,419.31h-35.31c-4.875,0-8.828-3.953-8.828-8.828v-17.655c0-4.875,3.953-8.828,8.828-8.828
		h35.31c4.875,0,8.828,3.953,8.828,8.828v17.655C388.414,415.358,384.461,419.31,379.586,419.31z"/>
	<path style="fill:#D7DEED;" d="M379.586,313.379h-35.31c-4.875,0-8.828-3.953-8.828-8.828v-17.655c0-4.875,3.953-8.828,8.828-8.828
		h35.31c4.875,0,8.828,3.953,8.828,8.828v17.655C388.414,309.427,384.461,313.379,379.586,313.379z"/>
	<path style="fill:#D7DEED;" d="M450.207,260.414h-35.31c-4.875,0-8.828-3.953-8.828-8.828v-17.655c0-4.875,3.953-8.828,8.828-8.828
		h35.31c4.875,0,8.828,3.953,8.828,8.828v17.655C459.034,256.461,455.082,260.414,450.207,260.414z"/>
	<path style="fill:#D7DEED;" d="M450.207,366.345h-35.31c-4.875,0-8.828-3.953-8.828-8.828v-17.655c0-4.875,3.953-8.828,8.828-8.828
		h35.31c4.875,0,8.828,3.953,8.828,8.828v17.655C459.034,362.392,455.082,366.345,450.207,366.345z"/>
	<path style="fill:#D7DEED;" d="M450.207,313.379h-35.31c-4.875,0-8.828-3.953-8.828-8.828v-17.655c0-4.875,3.953-8.828,8.828-8.828
		h35.31c4.875,0,8.828,3.953,8.828,8.828v17.655C459.034,309.427,455.082,313.379,450.207,313.379z"/>
	<path style="fill:#D7DEED;" d="M450.207,419.31h-35.31c-4.875,0-8.828-3.953-8.828-8.828v-17.655c0-4.875,3.953-8.828,8.828-8.828
		h35.31c4.875,0,8.828,3.953,8.828,8.828v17.655C459.034,415.358,455.082,419.31,450.207,419.31z"/>
</g>
<g>
	<path style="fill:#C7CFE2;" d="M97.103,207.448h-35.31c-4.875,0-8.828-3.953-8.828-8.828l0,0c0-4.875,3.953-8.828,8.828-8.828
		h35.31c4.875,0,8.828,3.953,8.828,8.828l0,0C105.931,203.496,101.978,207.448,97.103,207.448z"/>
	<path style="fill:#C7CFE2;" d="M167.724,207.448h-35.31c-4.875,0-8.828-3.953-8.828-8.828l0,0c0-4.875,3.953-8.828,8.828-8.828
		h35.31c4.875,0,8.828,3.953,8.828,8.828l0,0C176.552,203.496,172.599,207.448,167.724,207.448z"/>
	<path style="fill:#C7CFE2;" d="M238.345,207.448h-35.31c-4.875,0-8.828-3.953-8.828-8.828l0,0c0-4.875,3.953-8.828,8.828-8.828
		h35.31c4.875,0,8.828,3.953,8.828,8.828l0,0C247.172,203.496,243.22,207.448,238.345,207.448z"/>
	<path style="fill:#C7CFE2;" d="M308.966,207.448h-35.31c-4.875,0-8.828-3.953-8.828-8.828l0,0c0-4.875,3.953-8.828,8.828-8.828
		h35.31c4.875,0,8.828,3.953,8.828,8.828l0,0C317.793,203.496,313.841,207.448,308.966,207.448z"/>
	<path style="fill:#C7CFE2;" d="M379.586,207.448h-35.31c-4.875,0-8.828-3.953-8.828-8.828l0,0c0-4.875,3.953-8.828,8.828-8.828
		h35.31c4.875,0,8.828,3.953,8.828,8.828l0,0C388.414,203.496,384.461,207.448,379.586,207.448z"/>
	<path style="fill:#C7CFE2;" d="M450.207,207.448h-35.31c-4.875,0-8.828-3.953-8.828-8.828l0,0c0-4.875,3.953-8.828,8.828-8.828
		h35.31c4.875,0,8.828,3.953,8.828,8.828l0,0C459.034,203.496,455.082,207.448,450.207,207.448z"/>
</g>
<g>
	<path style="fill:#FF6464;" d="M211.862,251.586c-2.259,0-4.518-0.862-6.241-2.586l-17.655-17.655
		c-3.448-3.448-3.448-9.035,0-12.483c3.448-3.448,9.035-3.448,12.483,0l11.413,11.415l29.069-29.069
		c3.448-3.448,9.035-3.448,12.483,0s3.448,9.035,0,12.483l-35.31,35.31C216.38,250.724,214.121,251.586,211.862,251.586z"/>
	<path style="fill:#FF6464;" d="M353.103,304.552c-2.259,0-4.518-0.862-6.241-2.586l-17.655-17.655
		c-3.448-3.448-3.448-9.035,0-12.483s9.035-3.448,12.483,0l11.413,11.415l29.069-29.069c3.448-3.448,9.035-3.448,12.483,0
		c3.448,3.448,3.448,9.035,0,12.483l-35.31,35.31C357.621,303.69,355.362,304.552,353.103,304.552z"/>
	<path style="fill:#FF6464;" d="M141.241,410.483c-2.259,0-4.518-0.862-6.241-2.586l-17.655-17.655
		c-3.448-3.448-3.448-9.035,0-12.483c3.448-3.448,9.035-3.448,12.483,0l11.413,11.415l29.069-29.069
		c3.448-3.448,9.035-3.448,12.483,0c3.448,3.448,3.448,9.035,0,12.483l-35.31,35.31C145.759,409.621,143.5,410.483,141.241,410.483z
		"/>
</g>
<g>
	<path style="fill:#18BDF6;" d="M88.276,251.586H70.621c-4.875,0-8.828-3.953-8.828-8.828l0,0c0-4.875,3.953-8.828,8.828-8.828
		h17.655c4.875,0,8.828,3.953,8.828,8.828l0,0C97.103,247.634,93.151,251.586,88.276,251.586z"/>
	<path style="fill:#18BDF6;" d="M441.379,357.517h-17.655c-4.875,0-8.828-3.953-8.828-8.828l0,0c0-4.875,3.953-8.828,8.828-8.828
		h17.655c4.875,0,8.828,3.953,8.828,8.828l0,0C450.207,353.565,446.254,357.517,441.379,357.517z"/>
	<path style="fill:#18BDF6;" d="M229.517,304.552h-17.655c-4.875,0-8.828-3.953-8.828-8.828l0,0c0-4.875,3.953-8.828,8.828-8.828
		h17.655c4.875,0,8.828,3.953,8.828,8.828l0,0C238.345,300.599,234.392,304.552,229.517,304.552z"/>
</g>
<g>
	<path style="fill:#FFD782;" d="M300.138,410.483h-17.655c-4.875,0-8.828-3.953-8.828-8.828l0,0c0-4.875,3.953-8.828,8.828-8.828
		h17.655c4.875,0,8.828,3.953,8.828,8.828l0,0C308.966,406.53,305.013,410.483,300.138,410.483z"/>
	<path style="fill:#FFD782;" d="M158.897,304.552h-17.655c-4.875,0-8.828-3.953-8.828-8.828l0,0c0-4.875,3.953-8.828,8.828-8.828
		h17.655c4.875,0,8.828,3.953,8.828,8.828l0,0C167.724,300.599,163.772,304.552,158.897,304.552z"/>
</g>
<g>
</g>
<g>
</g>
<g>
</g>
<g>
</g>
<g>
</g>
<g>
</g>
<g>
</g>
<g>
</g>
<g>
</g>
<g>
</g>
<g>
</g>
<g>
</g>
<g>
</g>
<g>
</g>
<g>
</g>
</svg>
